<svg width="49" height="49" viewBox="0 0 49 49" fill="none" xmlns="http://www.w3.org/2000/svg">
<path d="M24.5 44.9167C21.6757 44.9167 19.0215 44.3808 16.5375 43.3089C14.0535 42.237 11.8927 40.7823 10.0552 38.9448C8.21772 37.1073 6.76303 34.9466 5.69116 32.4625C4.61928 29.9785 4.08334 27.3244 4.08334 24.5C4.08334 21.6757 4.61928 19.0216 5.69116 16.5375C6.76303 14.0535 8.21772 11.8928 10.0552 10.0552C11.8927 8.21775 14.0535 6.76306 16.5375 5.69119C19.0215 4.61931 21.6757 4.08337 24.5 4.08337C27.3243 4.08337 29.9785 4.61931 32.4625 5.69119C34.9465 6.76306 37.1073 8.21775 38.9448 10.0552C40.7823 11.8928 42.237 14.0535 43.3089 16.5375C44.3807 19.0216 44.9167 21.6757 44.9167 24.5C44.9167 27.3244 44.3807 29.9785 43.3089 32.4625C42.237 34.9466 40.7823 37.1073 38.9448 38.9448C37.1073 40.7823 34.9465 42.237 32.4625 43.3089C29.9785 44.3808 27.3243 44.9167 24.5 44.9167ZM22.4583 40.7313V36.75C21.3354 36.75 20.3741 36.3502 19.5745 35.5506C18.7748 34.7509 18.375 33.7896 18.375 32.6667V30.625L8.57501 20.825C8.47293 21.4375 8.37935 22.05 8.29428 22.6625C8.20921 23.275 8.16668 23.8875 8.16668 24.5C8.16668 28.6174 9.51928 32.2243 12.2245 35.3209C14.9297 38.4174 18.341 40.2209 22.4583 40.7313ZM36.5458 35.525C37.941 33.9938 39.0044 32.2839 39.736 30.3954C40.4675 28.5068 40.8333 26.5417 40.8333 24.5C40.8333 21.1653 39.9061 18.1198 38.0516 15.3636C36.1971 12.6073 33.7215 10.6167 30.625 9.39171V10.2084C30.625 11.3313 30.2252 12.2926 29.4255 13.0922C28.6259 13.8919 27.6646 14.2917 26.5417 14.2917H22.4583V18.375C22.4583 18.9535 22.2627 19.4384 21.8714 19.8297C21.48 20.2211 20.9952 20.4167 20.4167 20.4167H16.3333V24.5H28.5833C29.1618 24.5 29.6467 24.6957 30.038 25.087C30.4294 25.4783 30.625 25.9632 30.625 26.5417V32.6667H32.6667C33.5514 32.6667 34.3511 32.9304 35.0656 33.4579C35.7802 33.9853 36.2736 34.6744 36.5458 35.525Z" fill="white"/>
</svg>
