<svg width="46" height="46" viewBox="0 0 46 46" fill="none" xmlns="http://www.w3.org/2000/svg">
<path d="M9.58333 40.25C8.52917 40.25 7.62674 39.8746 6.87604 39.1239C6.12535 38.3732 5.75 37.4708 5.75 36.4166V9.58329C5.75 8.52913 6.12535 7.6267 6.87604 6.876C7.62674 6.12531 8.52917 5.74996 9.58333 5.74996H17.6333C18.0486 4.59996 18.7434 3.67357 19.7177 2.97079C20.692 2.26801 21.7861 1.91663 23 1.91663C24.2139 1.91663 25.308 2.26801 26.2823 2.97079C27.2566 3.67357 27.9514 4.59996 28.3667 5.74996H36.4167C37.4708 5.74996 38.3733 6.12531 39.124 6.876C39.8747 7.6267 40.25 8.52913 40.25 9.58329V22.425C39.6431 22.1375 39.0201 21.8899 38.3812 21.6823C37.7424 21.4746 37.0875 21.3229 36.4167 21.227V9.58329H9.58333V36.4166H21.1792C21.275 37.1194 21.4267 37.7902 21.6344 38.4291C21.842 39.068 22.0896 39.675 22.3771 40.25H9.58333ZM9.58333 34.5V36.4166V9.58329V21.227V21.0833V34.5ZM13.4167 32.5833H21.2271C21.3229 31.9125 21.4747 31.2576 21.6823 30.6187C21.8899 29.9798 22.1215 29.3569 22.3771 28.75H13.4167V32.5833ZM13.4167 24.9166H25.1083C26.1306 23.9583 27.2726 23.1597 28.5344 22.5208C29.7962 21.8819 31.1458 21.4507 32.5833 21.227V21.0833H13.4167V24.9166ZM13.4167 17.25H32.5833V13.4166H13.4167V17.25ZM23 8.14579C23.4153 8.14579 23.7587 8.01003 24.0302 7.7385C24.3017 7.46697 24.4375 7.12357 24.4375 6.70829C24.4375 6.29302 24.3017 5.94961 24.0302 5.67808C23.7587 5.40656 23.4153 5.27079 23 5.27079C22.5847 5.27079 22.2413 5.40656 21.9698 5.67808C21.6983 5.94961 21.5625 6.29302 21.5625 6.70829C21.5625 7.12357 21.6983 7.46697 21.9698 7.7385C22.2413 8.01003 22.5847 8.14579 23 8.14579ZM34.5 44.0833C31.8486 44.0833 29.5885 43.1489 27.7198 41.2802C25.851 39.4114 24.9167 37.1514 24.9167 34.5C24.9167 31.8486 25.851 29.5885 27.7198 27.7198C29.5885 25.851 31.8486 24.9166 34.5 24.9166C37.1514 24.9166 39.4115 25.851 41.2802 27.7198C43.149 29.5885 44.0833 31.8486 44.0833 34.5C44.0833 37.1514 43.149 39.4114 41.2802 41.2802C39.4115 43.1489 37.1514 44.0833 34.5 44.0833ZM34.5 41.2083C36.225 41.2083 37.7184 40.6333 38.9802 39.4833C40.242 38.3333 40.9688 36.9118 41.1604 35.2187C41.0007 35.2826 40.849 35.3385 40.7052 35.3864C40.5615 35.4343 40.4097 35.4583 40.25 35.4583H38.3333C37.7903 35.4583 37.3351 35.2746 36.9677 34.9073C36.6003 34.5399 36.4167 34.0847 36.4167 33.5416V32.5833H32.5833V30.6666C32.5833 30.1236 32.767 29.6684 33.1344 29.301C33.5017 28.9336 33.9569 28.75 34.5 28.75H35.4583C35.4583 28.5902 35.4743 28.4385 35.5062 28.2948C35.5382 28.151 35.5861 28.0152 35.65 27.8875C35.4583 27.8555 35.2667 27.8316 35.075 27.8156C34.8833 27.7996 34.6917 27.7916 34.5 27.7916C32.6472 27.7916 31.066 28.4465 29.7563 29.7562C28.4465 31.0659 27.7917 32.6472 27.7917 34.5H31.625C32.6792 34.5 33.5816 34.8753 34.3323 35.626C35.083 36.3767 35.4583 37.2791 35.4583 38.3333V39.2916H32.5833V40.9208C32.9028 41.0166 33.2142 41.0885 33.5177 41.1364C33.8212 41.1843 34.1486 41.2083 34.5 41.2083Z" fill="white"/>
</svg>
