<?xml version="1.0" encoding="UTF-8"?>
<svg id="Camada_1" xmlns="http://www.w3.org/2000/svg" version="1.1" viewBox="0 0 65 44.3">
  <!-- Generator: Adobe Illustrator 30.0.0, SVG Export Plug-In . SVG Version: 2.1.1 Build 123)  -->
  <defs>
    <style>
      .st0 {
        fill: #fff;
      }

      .st1 {
        fill: none;
      }
    </style>
  </defs>
  <rect class="st1" y="5.1" width="64.7" height="33.5"/>
  <g>
    <path class="st0" d="M19.9,13.9h12.8c.3,0,.6-.3.6-.6v-4.3c0-.3-.3-.6-.6-.6h-12.7c-7.6,0-13.8,6.1-13.8,13.6,0,7.6,6.1,13.7,13.7,13.7h12.9c.3,0,.6-.3.6-.6v-15.3c0-.3-.3-.6-.6-.6h-12c-.3,0-.6.3-.6.6v4.3c0,.3.3.6.6.6h7.1v5.5h-8c-4.6,0-8.3-3.7-8.3-8.3s3.8-8.2,8.4-8.2Z"/>
    <path class="st0" d="M58.9,16.6c0-4.5-3.7-8.2-8.2-8.2s0,0,0,0h0s-9.2,0-9.2,0h-4.4c-.4,0-.7.5-.5.9l2.7,4.3c.1.2.3.3.5.3h10.8s0,0,0,0c1.5,0,2.8,1.2,2.8,2.8s-1.2,2.8-2.8,2.8,0,0,0,0h0s-2.2,0-2.2,0h-4.4c-.4,0-.7.5-.5.9l9.7,15.3c.1.2.3.3.5.3h4.1c.4,0,.7-.5.5-.9l-6.5-10.2c4-.6,7-4,7-8.1Z"/>
    <rect class="st0" x="36.5" y="30.4" width="5.4" height="5.4" rx=".6" ry=".6"/>
  </g>
</svg>