<?xml version="1.0" encoding="UTF-8"?>
<svg id="Camada_1" xmlns="http://www.w3.org/2000/svg" version="1.1" viewBox="0 0 65 44.8">
  <!-- Generator: Adobe Illustrator 30.0.0, SVG Export Plug-In . SVG Version: 2.1.1 Build 123)  -->
  <defs>
    <style>
      .st0 {
        fill: #fff;
      }
    </style>
  </defs>
  <path class="st0" d="M0,33v-4.3c0-1.9,1-3.5,3-4.7s4.6-1.8,7.9-1.8,1.2,0,1.7,0,1.1,0,1.6.2c-.6.9-1.1,1.9-1.4,3-.3,1-.5,2.1-.5,3.2v4.4s-12.3,0-12.3,0ZM16.2,33v-4.4c0-1.4.4-2.8,1.2-4s1.9-2.2,3.4-3.1c1.4-.9,3.2-1.6,5.2-2,2-.5,4.2-.7,6.5-.7s4.6.2,6.6.7,3.7,1.1,5.2,2c1.4.9,2.6,2,3.3,3.1.8,1.2,1.2,2.5,1.2,4v4.4H16.2ZM52.8,33v-4.4c0-1.2,0-2.3-.4-3.3-.3-1-.7-2-1.3-2.9.5,0,1-.1,1.5-.2h1.6c3.2,0,5.9.6,7.9,1.8,2,1.2,3,2.8,3,4.8v4.3h-12.3ZM22,27.6h21.1c-.5-.9-1.7-1.7-3.8-2.4-2.1-.7-4.3-1-6.8-1s-4.8.3-6.8,1c-2.1.7-3.3,1.5-3.7,2.4ZM10.8,19.5c-1.5,0-2.8-.5-3.8-1.6-1.1-1.1-1.6-2.3-1.6-3.8s.5-2.8,1.6-3.9c1.1-1,2.3-1.6,3.8-1.6s2.8.5,3.9,1.6,1.6,2.3,1.6,3.9-.5,2.8-1.6,3.8c-1,1.1-2.3,1.6-3.9,1.6ZM54.2,19.5c-1.5,0-2.8-.5-3.8-1.6-1.1-1.1-1.6-2.3-1.6-3.8s.5-2.8,1.6-3.9c1.1-1,2.3-1.6,3.8-1.6s2.8.5,3.9,1.6c1,1,1.6,2.3,1.6,3.9s-.5,2.8-1.6,3.8c-1,1.1-2.3,1.6-3.9,1.6ZM32.5,16.7c-2.3,0-4.2-.8-5.8-2.4-1.6-1.6-2.4-3.5-2.4-5.8s.8-4.2,2.4-5.8c1.6-1.4,3.5-2.2,5.8-2.2s4.2.8,5.8,2.3c1.6,1.6,2.3,3.5,2.3,5.8s-.8,4.2-2.3,5.8c-1.6,1.6-3.5,2.4-5.8,2.4h0ZM32.5,11.3c.8,0,1.4-.3,1.9-.8s.8-1.2.8-1.9-.3-1.4-.8-1.9-1.2-.8-1.9-.8-1.4.3-1.9.8-.8,1.2-.8,1.9.3,1.4.8,1.9,1.2.8,1.9.8Z"/>
</svg>