<?xml version="1.0" encoding="UTF-8"?>
<svg id="Camada_1" xmlns="http://www.w3.org/2000/svg" version="1.1" viewBox="0 0 329 45.7">
  <!-- Generator: Adobe Illustrator 30.0.0, SVG Export Plug-In . SVG Version: 2.1.1 Build 123)  -->
  <defs>
    <style>
      .st0 {
        fill: none;
      }

      .st1 {
        fill: #3c3c3b;
      }

      .st2 {
        fill: #ec7235;
      }
    </style>
  </defs>
  <g>
    <path class="st1" d="M225.2,19.8h3.6c.2,0,.3-.2.3-.3v-2.1s0-.3-.3-.3h-3.5c-3.7,0-5.8,2.5-5.8,5.6s0,1,.2,1.5c.4,1.5,1.3,2.9,3,3.6.9.4,1.8.5,2.7.5h3.5c.3,0,.3-.2.3-.3v-2.1c0-.1,0-.3-.3-.3h-3.6c-1.9,0-3-1.3-3-2.9s.9-3.1,3-3.1Z"/>
    <path class="st1" d="M214.7,17.4c0,0-.1-.2-.3-.2h-1.6c-.2,0-.2,0-.3.2-.3.5-3.4,6.3-5,9.1,0,.1-.2.3-.2.4,0,.1-.2.1-.3,0-.2-.3-.4-.6-.7-1-.3-.5-.7-1-1-1.4,0,0,0,0,0,0-.1-.2,0-.4.2-.4.1,0,.2,0,.3,0,1.5-.4,2.2-1.9,2.2-3.1,0-2-1.5-3.6-3.5-3.6h-6.5c-.2,0-.3.2-.3.3s0,0,0,.1c0,0,.2.3.2.4l.6.9c.2.3.4.5.5.8,0,0,.1.1.2.1h5.2c.5,0,.7.4.7.9s-.3.9-.7.9h-4.2c0,0-.1,0,0,.2.7,1,4.2,6.4,4.3,6.6,0,0,0,.1.3.1h4.5c.1,0,.2,0,.3-.2l3.8-7c0-.1.3-.1.3,0l3.8,7c0,0,.1.2.3.2h2.3c.2,0,.3,0,.3-.3,0,0-5.7-10.4-5.8-10.8Z"/>
    <path class="st1" d="M198.1,25.9h2c.1,0,.3,0,.3.3v2c0,.1,0,.3-.3.3h-2c-.2,0-.3-.2-.3-.3v-2c0-.2.1-.3.3-.3"/>
    <path class="st2" d="M230.5,25.9h2c.1,0,.3,0,.3.3v2c0,.1,0,.3-.3.3h-2c-.2,0-.3-.2-.3-.3v-2c0-.2.1-.3.3-.3"/>
    <path class="st2" d="M257,25.9h2c.1,0,.3,0,.3.3v2c0,.1,0,.3-.3.3h-2c-.2,0-.3-.2-.3-.3v-2c0-.2.1-.3.3-.3"/>
    <path class="st2" d="M233.4,20.8c0-2,1.5-3.6,3.5-3.6h18.5c.2,0,.3,0,.3.3v2.1c0,.1,0,.3-.3.3h-18.6c-.5,0-.7.4-.7.9s.2.9.7.9h3.4c1.4,0,3.2,0,4.2,1.1.6.7.8,1.4.8,2.2,0,2-1.5,3.6-3.9,3.6h-7.2c-.2,0-.3-.2-.3-.3v-2.1c0,0,.1-.3.3-.3h7.6c.4,0,.8-.5.8-.9s-.1-.5-.4-.6c-.2,0-.5-.2-.6-.2h-4.4c-1.2,0-2.2-.3-2.8-.9-.6-.6-1-1.4-1-2.5M246.2,28.2v-6.4c0-.1,0-.3.3-.3h8.8c.2,0,.3,0,.3.3v2.1c0,.2-.1.3-.3.3h-6.5v1.7h6.5c.2,0,.3.1.3.3v2.1c0,.2-.1.3-.3.3h-8.8c0,0-.2,0-.2,0,0,0,0-.1,0-.2"/>
    <path class="st2" d="M265.7,26c-.3-.5-.7-1-1-1.4,0,0,0,0,0,0-.1-.2,0-.4.2-.4s.2,0,.3,0c1.5-.4,2.2-1.9,2.2-3.1,0-2-1.5-3.6-3.5-3.6h-6.5c-.2,0-.3.2-.3.3s0,0,0,.1c0,0,.2.3.2.4l.6.9c.2.3.4.5.5.8s.1.1.2.1h5.2c.5,0,.7.4.7.9s-.3.9-.7.9h-4.2c0,0-.1,0,0,.2.7,1,4.2,6.4,4.3,6.6,0,0,0,.1.3.1h2.8c.2,0,.3-.2.2-.3-.4-.6-1.3-1.9-1.5-2.2Z"/>
    <g>
      <path class="st2" d="M303.7,17.5v2.1c0,.1,0,.3-.3.3h-14.7c-2.1,0-3,1.4-3,3.1s1.1,2.9,3,2.9h3.6c.2,0,.3.2.3.3v2.1s0,.3-.3.3h-3.5c-.9,0-1.8-.1-2.7-.5-1.6-.7-2.6-2.1-3-3.6-.1-.5-.2-1-.2-1.5,0-2,.8-3.7,2.4-4.7.9-.6,2.1-.9,3.4-.9h14.5c.2,0,.3,0,.3.3Z"/>
      <path class="st2" d="M303.6,26.1v2.1c0,.2-.1.3-.3.3h-8.8c0,0-.2,0-.2,0,0,0,0-.1,0-.2v-6.4c0-.1,0-.3.3-.3h8.8c.2,0,.3,0,.3.3v2.1c0,.2-.1.3-.3.3h-6.5v1.7h6.5c.2,0,.3.1.3.3Z"/>
      <path class="st2" d="M271.4,28.3l-4-10.7c0-.2,0-.3.2-.3h2.1c0,0,.2,0,.2.2l2.7,7.3c0,.2.4.2.4,0l2.7-7.3c0,0,.1-.2.2-.2h2.1c.2,0,.3.2.2.3l-4,10.7c0,0-.1.2-.2.2h-2.5c0,0-.2,0-.2-.2Z"/>
      <path class="st2" d="M279.7,17.2h2.1c.2,0,.3,0,.3.3v10.7c0,.1,0,.3-.3.3h-2.1c-.2,0-.3-.2-.3-.3v-10.7c0-.2.2-.3.3-.3Z"/>
    </g>
  </g>
  <g>
    <g>
      <path class="st1" d="M20.8,17.8h5c.1,0,.2,0,.2-.2v-1.7c0-.1,0-.2-.2-.2h-5c-3,0-5.4,2.4-5.4,5.4s2.4,5.4,5.4,5.4h5.1c.1,0,.2,0,.2-.2v-6c0-.1,0-.2-.2-.2h-4.7c-.1,0-.2,0-.2.2v1.7c0,.1,0,.2.2.2h2.8v2.2h-3.2c-1.8,0-3.3-1.5-3.2-3.3s1.5-3.2,3.3-3.2Z"/>
      <path class="st1" d="M36.1,18.9c0-1.8-1.4-3.2-3.2-3.2s0,0,0,0h0s-3.6,0-3.6,0h-1.7c-.2,0-.3.2-.2.3l1.1,1.7c0,0,.1.1.2.1h4.2s0,0,0,0c.6,0,1.1.5,1.1,1.1s-.5,1.1-1.1,1.1,0,0,0,0h0s-.9,0-.9,0h-1.7c-.2,0-.3.2-.2.3l3.8,6c0,0,.1.1.2.1h1.6c.2,0,.3-.2.2-.3l-2.5-4c1.6-.2,2.8-1.6,2.8-3.2Z"/>
      <path class="st1" d="M54.4,15.7s0,0,0,0h0s-3.6,0-3.6,0h-1.9c-.1,0-.2,0-.2.2v10.3c0,.1,0,.2.2.2h1.7c.1,0,.2,0,.2-.2v-8.4h3.6s0,0,0,0c.6,0,1.1.5,1.1,1.1s-.5,1.1-1.1,1.1,0,0,0,0h0s-2.7,0-2.7,0c-.1,0-.2,0-.2.2v1.7c0,.1,0,.2.2.2h2.7s0,0,0,0c1.8,0,3.2-1.4,3.2-3.2s-1.4-3.2-3.2-3.2Z"/>
      <path class="st1" d="M45.6,15.9v5.1c0,1.8-1.4,3.3-3.2,3.3s-3.3-1.4-3.3-3.2v-5.2c0-.1,0-.2-.2-.2h-1.7c-.1,0-.2,0-.2.2v5.1c0,3,2.4,5.4,5.4,5.4s5.4-2.4,5.4-5.4v-5.2c0-.1,0-.2-.2-.2h-1.7c-.1,0-.2,0-.2.2Z"/>
      <path class="st1" d="M68.7,21.1c0-3-2.4-5.4-5.4-5.4-3,0-5.4,2.4-5.4,5.4h0c0,3,2.4,5.4,5.4,5.4s5.4-2.4,5.4-5.4h0ZM63.3,24.3c-1.8,0-3.2-1.5-3.2-3.2h0c0-1.8,1.5-3.2,3.2-3.2,1.8,0,3.2,1.5,3.2,3.2h0c0,1.8-1.5,3.2-3.2,3.2Z"/>
      <path class="st1" d="M122.2,21.1c0-3-2.4-5.4-5.4-5.4-3,0-5.4,2.4-5.4,5.4h0c0,3,2.4,5.4,5.4,5.4s5.4-2.4,5.4-5.4h0ZM116.8,24.3c-1.8,0-3.2-1.5-3.2-3.2h0c0-1.8,1.5-3.2,3.2-3.2,1.8,0,3.2,1.5,3.2,3.2h0c0,1.8-1.5,3.2-3.2,3.2Z"/>
      <path class="st1" d="M97.9,17.8h3.2c.1,0,.2,0,.2-.2v-1.7c0-.1,0-.2-.2-.2h-3.2c-3,0-5.4,2.4-5.4,5.4s2.4,5.4,5.4,5.4h3.3c.1,0,.2,0,.2-.2v-1.7c0-.1,0-.2-.2-.2h-3.3c-1.8,0-3.3-1.5-3.2-3.3s1.5-3.2,3.3-3.2Z"/>
      <path class="st1" d="M107.5,17.8h3.2c.1,0,.2,0,.2-.2v-1.7c0-.1,0-.2-.2-.2h-3.2c-3,0-5.4,2.4-5.4,5.4s2.4,5.4,5.4,5.4h3.3c.1,0,.2,0,.2-.2v-1.7c0-.1,0-.2-.2-.2h-3.3c-1.8,0-3.3-1.5-3.2-3.3s1.5-3.2,3.3-3.2Z"/>
      <rect class="st1" x="71.8" y="24.3" width="2.1" height="2.1" rx=".2" ry=".2"/>
      <path class="st1" d="M93.2,26.1l-5.5-10.3c0,0-.1-.1-.2-.1h-1.9c0,0-.2,0-.2.1l-5.2,9.7-2.2-3.4c1.6-.2,2.8-1.6,2.8-3.2s-1.4-3.2-3.2-3.2,0,0,0,0h0s-3.6,0-3.6,0h-1.7c-.2,0-.3.2-.2.3l1.1,1.7c0,0,.1.1.2.1h4.2s0,0,0,0c.6,0,1.1.5,1.1,1.1s-.5,1.1-1.1,1.1,0,0,0,0h0s-.9,0-.9,0h-1.7c-.2,0-.3.2-.2.3l3.8,6c0,0,.1.1.2.1h3c0,0,.2,0,.2-.1l4.6-8.6,4.6,8.6c0,0,.1.1.2.1h1.6c.2,0,.3-.2.2-.3Z"/>
      <path class="st1" d="M126.9,13.3c0-1.3-1.1-2.4-2.4-2.4-1.3,0-2.4,1.1-2.4,2.4h0c0,1.3,1.1,2.4,2.4,2.4s2.4-1.1,2.4-2.4h0ZM124.5,15.2c-1,0-1.9-.8-1.9-1.9h0c0-1,.8-1.9,1.9-1.9,1,0,1.9.8,1.9,1.9h0c0,1-.8,1.9-1.9,1.9ZM125.5,14.4s0,0,0,0c0,0,0,0,0,0,0,0,0,0,0,0s0,0-.1,0,0,0-.1,0,0,0,0,0c0,0,0,0,0,0,0,0,0,0,0,0l-.2-.5c0,0,0-.1,0-.2s0,0,0-.1c0,0,0,0-.1,0,0,0,0,0-.1,0h-.2v.9s0,0,0,0c0,0,0,0,0,0,0,0,0,0,0,0,0,0,0,0-.1,0s0,0-.1,0,0,0,0,0c0,0,0,0,0,0,0,0,0,0,0,0v-2.2c0,0,0,0,0-.1,0,0,0,0,.1,0h.6c0,0,.1,0,.2,0,0,0,0,0,.1,0,0,0,.2,0,.3,0,0,0,.1,0,.2.1s0,.1.1.2c0,0,0,.2,0,.3s0,.2,0,.2,0,.1,0,.2c0,0,0,0-.1.1,0,0-.1,0-.2,0,0,0,0,0,0,0,0,0,0,0,0,0,0,0,0,0,0,.1,0,0,0,0,0,.2l.2.5s0,0,0,.1,0,0,0,0ZM124.9,12.8c0,0,0-.1,0-.2,0,0,0,0-.2-.1,0,0,0,0,0,0s0,0-.1,0h-.2v.7h.2c0,0,.1,0,.2,0,0,0,0,0,.1,0,0,0,0,0,0-.1,0,0,0,0,0-.1Z"/>
    </g>
    <g>
      <path class="st1" d="M59.5,34.4v-3.2c0-.5-.3-.8-.7-.8h-.5v-.6h.5c.9,0,1.4.5,1.4,1.4v3.2h-.6Z"/>
      <path class="st1" d="M62.4,34.4v-.6h2.3c.8,0,1.3-.4,1.4-1.2h-2.9c-.8,0-1.3-.4-1.3-1.3s.5-1.4,1.3-1.4h1.5c1.3,0,2.1.8,2.1,2.4s-.8,2.3-2.1,2.3h-2.3ZM63.3,32h2.8c0-1.1-.6-1.6-1.4-1.6h-1.4c-.5,0-.8.3-.8.8s.3.8.8.8Z"/>
      <path class="st1" d="M69.8,34.4c-.9,0-1.4-.6-1.4-1.3s.3-1,.8-1.1c-.4,0-.7-.4-.7-1s.6-1.2,1.4-1.2h1.9c.9,0,1.4.4,1.4,1.2s-.3.9-.7,1c.5.1.8.5.8,1.1s-.5,1.3-1.4,1.3h-2.1ZM69.9,32.4c-.5,0-.9.3-.9.7s.5.7,1.1.7h1.5c.6,0,1.1-.2,1.1-.7s-.3-.7-.9-.7h-2ZM70.2,30.4c-.7,0-1.1.1-1.1.7s.3.7.8.7h1.9c.6,0,.8-.2.8-.7s-.4-.7-1.1-.7h-1.4Z"/>
      <path class="st1" d="M75,32.1c0-1.4,1-2.3,2.3-2.3s2.4,1,2.4,2.3-1,2.4-2.4,2.4-2.3-1.1-2.3-2.4ZM79.1,32.1c0-1-.7-1.7-1.7-1.7s-1.7.7-1.7,1.7.7,1.8,1.7,1.8,1.7-.8,1.7-1.8Z"/>
    </g>
    <rect class="st1" x="15.4" y="31.9" width="39.2" height=".4"/>
    <rect class="st1" x="83.4" y="31.9" width="38.7" height=".4"/>
    <rect class="st0" x="45.9" y="-46.2" width="45.7" height="138.1" transform="translate(91.6 -45.9) rotate(90)"/>
    <rect class="st0" x="10.6" y="10.9" width="116.3" height="23.9"/>
  </g>
</svg>