<?xml version="1.0" encoding="UTF-8"?>
<svg id="Camada_1" xmlns="http://www.w3.org/2000/svg" version="1.1" viewBox="0 0 375.9 39.9">
  <!-- Generator: Adobe Illustrator 30.0.0, SVG Export Plug-In . SVG Version: 2.1.1 Build 123)  -->
  <defs>
    <style>
      .st0 {
        fill: #eb7234;
      }

      .st1 {
        fill: #3c3c3b;
      }
    </style>
  </defs>
  <path class="st1" d="M97.2,9.3h12.9c.9,0,1-.8,1-1V1C111.1.8,111.1,0,110.1,0h-12.3C84.5,0,77.1,8.9,77.1,19.8s.2,3.6.6,5.4c1.3,5.3,4.7,10.1,10.5,12.8,3,1.3,6.3,1.8,9.5,1.8h12.3c.9,0,1-.8,1-1v-7.3c0-.4-.2-.9-1-.9h-12.7c-6.8,0-10.8-4.5-10.8-10.3s3.2-11,10.6-11c0,0,0,0,.1,0Z"/>
  <path class="st1" d="M59.9.5c0-.3-.5-.6-1-.6h-5.5c-.6,0-.7.2-.9.6-1,1.9-12.2,22.3-17.6,32.5-.3.5-.6,1-.8,1.5-.2.4-.8.5-1.1,0-.7-1.1-1.5-2.3-2.4-3.5-1.2-1.8-2.4-3.7-3.4-5.1,0-.1-.2-.2-.2-.3-.4-.6,0-1.4.7-1.5.4,0,.8-.2,1.1-.3,5.3-1.6,7.7-6.8,7.7-11.1C36.5,5.8,31.2,0,24,0H.9C.1,0,0,.7,0,1s0,.2.2.5c0,0,.6.9.9,1.4l2.1,3.2c.6,1,1.3,1.9,1.9,2.8.2.3.5.4.8.4h18.4c1.6,0,2.6,1.4,2.6,3.1s-.9,3-2.6,3h-14.8c-.3,0-.4.4-.3.6,2.4,3.4,14.9,22.9,15.2,23.5s.3.5,1,.5h15.9c.5,0,.8-.2,1-.6l13.6-25c.2-.5.9-.5,1.2,0l13.6,25c0,.3.4.6.9.6h8.3c.6,0,1.2-.3,1-1,0-.2-20.2-37.1-20.8-38.4h-.2Z"/>
  <path class="st1" d="M.9,30.9h6.9c.5,0,1,.3,1,.9v7.1c0,.4-.3,1-1,1H.9c-.8,0-1-.6-1-1v-7.1c0-.6.5-.9,1-.9"/>
  <path class="st0" d="M116,30.7h7.1c.5,0,1.1.3,1.1.9v7.2c0,.4-.3,1-1.1,1h-7.1c-.8,0-1.1-.6-1.1-1v-7.2c0-.6.5-.9,1.1-.9"/>
  <path class="st0" d="M210.3,30.7h7.1c.5,0,1.1.3,1.1.9v7.2c0,.4-.3,1-1.1,1h-7.1c-.8,0-1.1-.6-1.1-1v-7.2c0-.6.5-.9,1.1-.9"/>
  <path class="st0" d="M126.3,12.6C126.3,5.6,131.5,0,138.8,0h65.7c.6,0,1.1.3,1.1,1v7.3c0,.4-.2.9-1.1.9h-66.1c-1.6,0-2.6,1.3-2.6,3s.8,3.1,2.6,3.1h12.2c4.8,0,11.2.2,14.9,4.1,2.1,2.3,2.9,5,2.9,7.9,0,7.2-5.2,12.6-13.7,12.6h-25.5c-.8,0-1.1-.6-1.1-1v-7.3c0-.3.4-1,1.1-1h26.9c1.6,0,2.9-1.6,2.9-3.2s-.4-1.6-1.3-2.2c-.6-.3-1.6-.6-2.2-.6h-15.8c-4.4,0-7.8-1-10-3.1-2.3-2.1-3.4-5-3.4-8.9M171.8,38.9v-22.6c0-.4.2-1,1.1-1h31.4c.6,0,1.1.3,1.1,1v7.3c0,.6-.5,1-1.1,1h-23v6h23c.6,0,1.2.5,1.2,1v7.3c0,.6-.5,1-1.2,1h-31.3c-.3,0-.6,0-.8-.3-.2-.2-.3-.4-.3-.7"/>
  <path class="st0" d="M241.2,31c-1.2-1.8-2.4-3.7-3.4-5.1,0-.1-.2-.2-.2-.3-.4-.6,0-1.4.6-1.5.4,0,.8-.2,1.1-.3,5.3-1.6,7.6-6.8,7.6-11.1C246.9,5.8,241.6,0,234.4,0h-23c-.8,0-1.1.7-1.1,1s0,.2.2.5c0,0,.6.9.9,1.4l2.1,3.2c.6,1,1.3,1.9,1.9,2.8s.5.4.8.4h18.4c1.6,0,2.6,1.4,2.6,3.1s-.9,3-2.6,3h-14.8c-.3,0-.4.4-.3.6,2.4,3.4,14.9,22.9,15.2,23.5.1.2.3.5,1,.5h10c.6,0,.9-.7.6-1.1-1.5-2.2-4.7-6.8-5.3-7.7h0l.2-.2h0Z"/>
  <g>
    <path class="st0" d="M376,.9v7.3c0,.4-.3.9-1.1.9h-52.1c-7.4,0-10.6,4.9-10.6,11.1s4,10.3,10.8,10.3h12.7c.8,0,1,.5,1,.9v7.3c0,.2,0,1-1,1h-12.3c-3.2,0-6.5-.5-9.5-1.8-5.9-2.7-9.3-7.4-10.5-12.8-.4-1.8-.6-3.6-.6-5.4,0-6.9,3-13,8.5-16.6,3.2-2.1,7.3-3.3,12.2-3.3h51.5c.6,0,1.1.3,1.1,1h-.1Z"/>
    <path class="st0" d="M375.9,31.6v7.3c0,.6-.5,1-1.2,1h-31.3c-.3,0-.6,0-.8-.3-.2-.2-.3-.4-.3-.7v-22.6c0-.4.3-1,1.1-1h31.4c.6,0,1.1.3,1.1,1v7.3c0,.6-.5,1-1.1,1h-23v6h23c.5,0,1.2.5,1.2,1h-.1Z"/>
    <path class="st0" d="M261.4,39.3L247.1,1.1c-.2-.6.2-1.2.8-1.2h7.4c.4,0,.7.2.8.6l9.7,25.8c.3.7,1.3.7,1.6,0L277.1.5c.1-.3.4-.6.8-.6h7.4c.6,0,1,.6.8,1.2l-14.3,38.2c-.1.3-.4.6-.8.6h-8.8c-.4,0-.7-.2-.8-.6h0Z"/>
    <path class="st0" d="M290.7,0h7.4c.5,0,1.1.3,1.1.9v38c0,.4-.3,1-1.1,1h-7.4c-.8,0-1.1-.6-1.1-1V.9C289.6.3,290.1,0,290.7,0Z"/>
  </g>
</svg>