<?xml version="1.0" encoding="UTF-8"?>
<svg id="Camada_1" xmlns="http://www.w3.org/2000/svg" version="1.1" viewBox="0 0 323 156">
  <!-- Generator: Adobe Illustrator 30.0.0, SVG Export Plug-In . SVG Version: 2.1.1 Build 123)  -->
  <defs>
    <style>
      .st0 {
        fill: none;
      }

      .st1 {
        fill: #3c3c3b;
      }

      .st2 {
        fill: #ec7235;
      }
    </style>
  </defs>
  <g>
    <path class="st1" d="M113.2,133.3h6.7c.5,0,.5-.4.5-.5v-3.8c0,0,0-.5-.5-.5h-6.4c-7,0-10.8,4.6-10.8,10.4s.1,1.9.3,2.8c.7,2.8,2.4,5.3,5.5,6.7,1.6.7,3.3.9,5,.9h6.5c.5,0,.5-.4.5-.5v-3.8c0-.2-.1-.5-.5-.5h-6.6c-3.6,0-5.7-2.4-5.7-5.4s1.7-5.8,5.5-5.8Z"/>
    <path class="st1" d="M93.6,128.7c0-.2-.3-.3-.5-.3h-2.9c-.3,0-.4,0-.5.3-.5,1-6.4,11.7-9.2,17-.2.3-.3.5-.4.8-.1.2-.4.2-.6,0-.4-.6-.8-1.2-1.3-1.8-.6-1-1.3-1.9-1.8-2.6,0,0,0-.1-.1-.2-.2-.3,0-.7.3-.8.2,0,.4,0,.6-.2,2.8-.8,4-3.5,4-5.8,0-3.6-2.8-6.7-6.5-6.7h-12c-.4,0-.6.4-.6.5s0,0,0,.2c0,0,.3.5.5.7l1.1,1.7c.3.5.7,1,1,1.5,0,.1.3.2.4.2h9.6c.9,0,1.4.7,1.4,1.6s-.5,1.6-1.4,1.6h-7.7c-.1,0-.2.2-.1.3,1.3,1.8,7.8,12,8,12.3,0,.1.2.3.5.3h8.3c.2,0,.4,0,.5-.3l7.1-13.1c.1-.2.5-.2.6,0l7.1,13.1c0,.2.2.3.5.3h4.4c.3,0,.6-.2.5-.5,0-.1-10.6-19.4-10.9-20.1Z"/>
    <path class="st1" d="M62.7,144.6h3.6c.3,0,.5.2.5.5v3.7c0,.2-.1.5-.5.5h-3.6c-.4,0-.5-.3-.5-.5v-3.7c0-.3.3-.5.5-.5"/>
    <path class="st2" d="M123,144.5h3.7c.3,0,.5.2.5.5v3.8c0,.2-.1.5-.5.5h-3.7c-.4,0-.5-.3-.5-.5v-3.8c0-.3.3-.5.5-.5"/>
    <path class="st2" d="M172.4,144.5h3.7c.3,0,.5.2.5.5v3.8c0,.2-.1.5-.5.5h-3.7c-.4,0-.5-.3-.5-.5v-3.8c0-.3.3-.5.5-.5"/>
    <path class="st2" d="M128.4,135c0-3.7,2.7-6.6,6.5-6.6h34.4c.3,0,.6.2.6.5v3.8c0,.2-.1.5-.6.5h-34.6c-.9,0-1.3.7-1.3,1.6s.4,1.6,1.3,1.6h6.4c2.5,0,5.9,0,7.8,2.1,1.1,1.2,1.5,2.6,1.5,4.1,0,3.7-2.7,6.6-7.2,6.6h-13.3c-.4,0-.6-.3-.6-.5v-3.8c0-.2.2-.5.6-.5h14.1c.8,0,1.5-.8,1.5-1.7s-.2-.9-.7-1.1c-.3-.2-.8-.3-1.2-.3h-8.3c-2.3,0-4.1-.5-5.2-1.6-1.2-1.1-1.8-2.6-1.8-4.7M152.2,148.8v-11.8c0-.2.1-.5.6-.5h16.4c.3,0,.6.2.6.5v3.8c0,.3-.3.5-.6.5h-12v3.2h12.1c.3,0,.6.3.6.5v3.8c0,.3-.3.5-.6.5h-16.4c-.2,0-.3,0-.4-.2-.1,0-.2-.2-.2-.4"/>
    <path class="st2" d="M188.5,144.7c-.6-1-1.3-1.9-1.8-2.6,0,0,0-.1-.1-.2-.2-.3,0-.7.3-.8s.4,0,.6-.2c2.8-.8,4-3.5,4-5.8,0-3.6-2.8-6.7-6.5-6.7h-12c-.4,0-.6.4-.6.5s0,0,0,.2c0,0,.3.5.5.7l1.1,1.7c.3.5.7,1,1,1.5s.3.2.4.2h9.6c.9,0,1.4.7,1.4,1.6s-.5,1.6-1.4,1.6h-7.7c-.1,0-.2.2-.1.3,1.3,1.8,7.8,12,8,12.3,0,.1.2.3.5.3h5.2c.3,0,.5-.3.3-.6-.8-1.1-2.4-3.6-2.8-4Z"/>
    <g>
      <path class="st2" d="M259.1,128.9v3.8c0,.2-.1.5-.6.5h-27.3c-3.9,0-5.5,2.5-5.5,5.8s2.1,5.4,5.7,5.4h6.6c.4,0,.5.3.5.5v3.8c0,0,0,.5-.5.5h-6.5c-1.7,0-3.4-.2-5-.9-3.1-1.4-4.8-3.9-5.5-6.7-.2-.9-.3-1.9-.3-2.8,0-3.6,1.5-6.8,4.4-8.7,1.7-1.1,3.8-1.7,6.4-1.7h26.9c.3,0,.6.2.6.5Z"/>
      <path class="st2" d="M259.1,145v3.8c0,.3-.3.5-.6.5h-16.4c-.2,0-.3,0-.4-.2-.1,0-.2-.2-.2-.4v-11.8c0-.2.1-.5.6-.5h16.4c.3,0,.6.2.6.5v3.8c0,.3-.3.5-.6.5h-12v3.2h12.1c.3,0,.6.3.6.5Z"/>
      <path class="st2" d="M199.1,149l-7.5-20c-.1-.3.1-.6.4-.6h3.9c.2,0,.4.1.4.3l5.1,13.5c.1.4.7.4.8,0l5.1-13.5c0-.2.2-.3.4-.3h3.9c.3,0,.5.3.4.6l-7.5,20c0,.2-.2.3-.4.3h-4.6c-.2,0-.4-.1-.4-.3Z"/>
      <path class="st2" d="M214.5,128.4h3.9c.3,0,.6.2.6.5v19.9c0,.2-.2.5-.6.5h-3.9c-.4,0-.6-.3-.6-.5v-19.9c0-.3.3-.5.6-.5Z"/>
    </g>
  </g>
  <g>
    <g>
      <path class="st1" d="M72.3,36.6h9.3c.2,0,.4-.2.4-.4v-3.1c0-.2-.2-.4-.4-.4h-9.3c-5.5,0-10.1,4.4-10.1,10,0,5.5,4.5,10,10,10h9.4c.2,0,.4-.2.4-.4v-11.2c0-.2-.2-.4-.4-.4h-8.8c-.2,0-.4.2-.4.4v3.1c0,.2.2.4.4.4h5.2v4h-5.9c-3.3,0-6.1-2.7-6-6.1,0-3.3,2.8-6,6.1-6Z"/>
      <path class="st1" d="M100.8,38.7c0-3.3-2.7-6-6-6s0,0,0,0h0s-6.7,0-6.7,0h-3.2c-.3,0-.5.4-.3.6l2,3.1c0,.1.2.2.3.2h7.9s0,0,0,0c1.1,0,2,.9,2,2s-.9,2-2,2,0,0,0,0h0s-1.6,0-1.6,0h-3.2c-.3,0-.5.4-.3.6l7.1,11.2c0,.1.2.2.3.2h3c.3,0,.5-.4.3-.6l-4.7-7.4c2.9-.4,5.1-2.9,5.1-5.9Z"/>
      <path class="st1" d="M134.7,32.7s0,0,0,0h0s-6.7,0-6.7,0h-3.6c-.2,0-.4.2-.4.4v19.2c0,.2.2.4.4.4h3.1c.2,0,.4-.2.4-.4v-15.6h6.7s0,0,0,0c1.1,0,2,.9,2,2s-.9,2-2,2,0,0,0,0h0s-5,0-5,0c-.2,0-.4.2-.4.4v3.1c0,.2.2.4.4.4h5s0,0,0,0c3.3,0,6-2.7,6-6s-2.7-6-6-6Z"/>
      <path class="st1" d="M118.4,33.1v9.5c0,3.3-2.7,6.1-6,6.1s-6.1-2.7-6.1-6v-9.6c0-.2-.2-.4-.4-.4h-3.1c-.2,0-.4.2-.4.4v9.5c0,5.5,4.4,10.1,10,10.1s10-4.5,10-10v-9.6c0-.2-.2-.4-.4-.4h-3.1c-.2,0-.4.2-.4.4Z"/>
      <path class="st1" d="M161.4,42.7c0-5.5-4.5-10-10-10-5.5,0-10,4.5-10,10h0c0,5.5,4.5,10,10,10s10-4.5,10-10h0ZM151.4,48.7c-3.3,0-6-2.7-6-6h0c0-3.3,2.7-6,6-6,3.3,0,6,2.7,6,6h0c0,3.3-2.7,6-6,6Z"/>
      <path class="st1" d="M260.9,42.7c0-5.5-4.5-10-10-10-5.5,0-10,4.5-10,10h0c0,5.5,4.5,10,10,10s10-4.5,10-10h0ZM250.9,48.7c-3.3,0-6-2.7-6-6h0c0-3.3,2.7-6,6-6,3.3,0,6,2.7,6,6h0c0,3.3-2.7,6-6,6Z"/>
      <path class="st1" d="M215.8,36.6h6c.2,0,.4-.2.4-.4v-3.1c0-.2-.2-.4-.4-.4h-6c-5.5,0-10.1,4.4-10.1,10,0,5.5,4.5,10,10,10h6.1c.2,0,.4-.2.4-.4v-3.1c0-.2-.2-.4-.4-.4h-6.1c-3.3,0-6.1-2.7-6-6.1s2.8-6,6.1-6Z"/>
      <path class="st1" d="M233.6,36.6h6c.2,0,.4-.2.4-.4v-3.1c0-.2-.2-.4-.4-.4h-6c-5.5,0-10.1,4.4-10.1,10s4.5,10,10,10h6.1c.2,0,.4-.2.4-.4v-3.1c0-.2-.2-.4-.4-.4h-6.1c-3.3,0-6.1-2.7-6-6.1s2.8-6,6.1-6Z"/>
      <rect class="st1" x="167.2" y="48.7" width="4" height="4" rx=".4" ry=".4"/>
      <path class="st1" d="M207,52.1l-10.3-19.2c0-.1-.2-.2-.4-.2h-3.5c-.2,0-.3,0-.4.2l-9.7,18.1-4.1-6.4c2.9-.4,5.1-2.9,5.1-5.9s-2.7-6-6-6,0,0,0,0h0s-6.7,0-6.7,0h-3.2c-.3,0-.5.4-.3.6l2,3.1c0,.1.2.2.3.2h7.9s0,0,0,0c1.1,0,2,.9,2,2s-.9,2-2,2,0,0,0,0h0s-1.6,0-1.6,0h-3.2c-.3,0-.5.4-.3.6l7.1,11.2c0,.1.2.2.3.2h5.5c.2,0,.3,0,.4-.2l8.6-16.1,8.6,16.1c0,.1.2.2.4.2h3c.3,0,.5-.3.4-.6Z"/>
      <path class="st1" d="M269.7,28.2c0-2.4-2-4.4-4.4-4.4-2.4,0-4.4,2-4.4,4.4h0c0,2.4,2,4.4,4.4,4.4s4.4-2,4.4-4.4h0ZM265.3,31.7c-1.9,0-3.5-1.6-3.5-3.5h0c0-1.9,1.6-3.5,3.5-3.5,1.9,0,3.5,1.6,3.5,3.5h0c0,1.9-1.6,3.5-3.5,3.5ZM267.1,30.3s0,0,0,0c0,0,0,0,0,0,0,0,0,0-.2,0s-.2,0-.3,0-.2,0-.2,0-.1,0-.1,0c0,0,0,0,0,0,0,0,0,0,0,0l-.4-1c0-.1,0-.2-.1-.3s0-.2-.2-.2c0,0-.1-.1-.2-.1,0,0-.2,0-.3,0h-.3v1.7s0,0,0,0c0,0,0,0,0,0,0,0,0,0-.1,0,0,0-.1,0-.2,0s-.2,0-.2,0-.1,0-.1,0c0,0,0,0,0,0,0,0,0,0,0,0v-4c0-.1,0-.2,0-.2,0,0,.1,0,.2,0h1.1c.1,0,.2,0,.3,0,0,0,.1,0,.2,0,.2,0,.3,0,.5.1.1,0,.3.1.4.2s.2.2.2.4c0,.1,0,.3,0,.5s0,.3,0,.4,0,.2-.2.3c0,0-.2.2-.3.2-.1,0-.2.1-.4.2,0,0,.1,0,.2.1,0,0,.1.1.2.2,0,0,0,.1.1.2,0,0,0,.2.1.3l.4.9c0,0,0,.1,0,.2s0,0,0,0ZM266,27.3c0-.1,0-.3,0-.4,0-.1-.2-.2-.3-.2,0,0,0,0-.2,0s-.1,0-.2,0h-.4v1.3h.5c.1,0,.2,0,.3,0,0,0,.2,0,.2-.1,0,0,.1-.1.1-.2,0,0,0-.2,0-.3Z"/>
    </g>
    <g>
      <path class="st1" d="M144.3,67.6v-5.9c0-.9-.5-1.5-1.4-1.5h-.8v-1.1h.8c1.6,0,2.5,1,2.5,2.6v5.9h-1.1Z"/>
      <path class="st1" d="M149.7,67.6v-1.1h4.2c1.5,0,2.4-.7,2.6-2.3h-5.4c-1.5,0-2.4-.8-2.4-2.5s.9-2.6,2.4-2.6h2.8c2.4,0,3.8,1.4,3.8,4.4s-1.5,4.2-3.8,4.2h-4.2ZM151.3,63h5.3c0-2-1-2.9-2.7-2.9h-2.6c-.9,0-1.4.6-1.4,1.5s.5,1.4,1.4,1.4Z"/>
      <path class="st1" d="M163.5,67.6c-1.7,0-2.7-1-2.7-2.5s.6-1.8,1.5-2c-.8-.2-1.4-.8-1.4-1.9s1-2.2,2.7-2.2h3.6c1.6,0,2.7.8,2.7,2.2s-.6,1.7-1.4,1.9c.9.2,1.5.9,1.5,2s-1,2.5-2.7,2.5h-3.8ZM163.6,63.7c-1,0-1.6.5-1.6,1.3s.9,1.4,2.1,1.4h2.8c1.2,0,2.1-.4,2.1-1.4s-.6-1.3-1.6-1.3h-3.7ZM164.1,60.1c-1.2,0-2,.3-2,1.3s.5,1.3,1.5,1.3h3.5c1,0,1.5-.3,1.5-1.3s-.7-1.3-2-1.3h-2.7Z"/>
      <path class="st1" d="M173.2,63.2c0-2.5,1.9-4.3,4.4-4.3s4.4,1.8,4.4,4.3-1.9,4.5-4.4,4.5-4.4-2-4.4-4.5ZM180.8,63.2c0-1.9-1.2-3.2-3.2-3.2s-3.2,1.3-3.2,3.2,1.2,3.3,3.2,3.3,3.2-1.4,3.2-3.3Z"/>
    </g>
    <rect class="st1" x="62.2" y="62.8" width="73" height=".8"/>
    <rect class="st1" x="188.8" y="62.8" width="72" height=".8"/>
    <rect class="st0" x="119" y="-82.5" width="85" height="257" transform="translate(207.5 -115.5) rotate(90)"/>
    <rect class="st0" x="53.3" y="23.8" width="216.4" height="44.4"/>
  </g>
</svg>